<?xml version="1.0" standalone="no"?>
<!DOCTYPE svg PUBLIC "-//W3C//DTD SVG 20010904//EN"
 "http://www.w3.org/TR/2001/REC-SVG-20010904/DTD/svg10.dtd">
<svg version="1.0" xmlns="http://www.w3.org/2000/svg"
 width="1000.000000pt" height="1000.000000pt" viewBox="0 0 1000.000000 1000.000000"
 preserveAspectRatio="xMidYMid meet">

<g transform="translate(0.000000,1000.000000) scale(0.100000,-0.100000)"
fill="#000000" stroke="none">
<path d="M4837 8710 c-335 -21 -630 -98 -900 -234 -709 -358 -1145 -1030
-1274 -1966 -22 -158 -25 -708 -5 -870 87 -712 284 -1190 646 -1567 181 -189
339 -304 578 -423 282 -139 569 -208 959 -229 402 -22 722 35 1013 181 342
171 633 464 810 816 20 40 41 72 47 72 19 0 5 -1027 -15 -1170 -65 -459 -197
-793 -411 -1043 -110 -129 -287 -253 -461 -324 -166 -67 -287 -96 -549 -129
-84 -11 -400 -8 -520 5 -399 42 -723 175 -945 388 -172 163 -279 354 -324 578
l-13 60 -322 3 -323 2 7 -52 c30 -248 94 -449 195 -613 289 -473 790 -767
1489 -875 400 -62 928 -44 1299 45 442 106 803 320 1044 620 250 313 390 679
470 1235 l22 155 3 2595 3 2595 -320 0 -320 0 0 -452 c0 -292 -4 -453 -10
-453 -5 0 -30 39 -54 88 -182 359 -558 690 -963 846 -248 96 -539 135 -856
116z m568 -563 c619 -139 1085 -681 1244 -1448 56 -273 66 -379 65 -694 -1
-277 -18 -424 -73 -650 -162 -660 -584 -1162 -1121 -1333 -189 -60 -243 -67
-505 -67 -211 0 -254 3 -353 23 -587 119 -1043 545 -1246 1164 -91 276 -128
512 -132 853 -3 261 6 377 47 605 107 606 371 1046 798 1331 155 105 273 159
432 199 166 43 241 49 494 45 210 -3 254 -6 350 -28z"/>
</g>
</svg>
